<?xml version="1.0" encoding="UTF-8"?>
<svg id="Layer_1" data-name="Layer 1" xmlns="http://www.w3.org/2000/svg" viewBox="0 0 1742.69 364.93">
  <defs>
    <style>
      .cls-1 {
        fill: #64ff00;
      }
    </style>
  </defs>
  <path class="cls-1" d="M0,84.75h114.14c61.82,0,93.9,28.26,93.9,70.24,0,31.66-21.39,53.44-51.54,59.53v2.69c33.2,1.5,62.22,26.72,62.22,66.81,0,44.63-34.73,77.08-95.8,77.08H0V84.75ZM141.61,167.21c0-18.7-14.11-30.56-37.41-30.56h-39.31v62.22h38.56c22.14,0,38.16-11.82,38.16-31.66ZM150.78,276.75c0-21.74-16.03-35.5-42-35.5h-43.9v67.2h42.75c29.79,0,43.15-11.86,43.15-31.7Z"/>
  <path class="cls-1" d="M315.83,361.1h-64.89V84.75h64.89v276.35Z"/>
  <path class="cls-1" d="M592.26,361.1h-55.34l-112.22-162.22h-1.92v162.22h-64.89V84.75h56.11l111.08,162.22h2.29V84.75h64.89v276.35Z"/>
  <path class="cls-1" d="M634.44,361.1V84.75h101.16c84.35,0,136.27,51.9,136.27,138.19s-51.92,138.15-136.27,138.15h-101.16ZM733.3,305.36c47.34,0,73.28-22.5,73.28-82.42s-25.95-82.86-74.03-82.86h-33.22v165.27h33.97Z"/>
  <path class="cls-1" d="M910.61,84.75h112.99c62.22,0,100.39,35.14,100.39,91.63,0,37.95-17.38,65.26-47.72,78.98l57.63,105.74h-71.37l-50.78-95.02h-36.26v95.02h-64.89V84.75ZM1009.84,214.17c30.54,0,46.96-11.86,46.96-37.79s-16.42-38.94-46.96-38.94h-34.35v76.72h34.35Z"/>
  <path class="cls-1" d="M1393.63,84.75v178.28c0,61.82-46.96,101.9-116.41,101.9s-116.43-40.08-116.43-101.9V84.75h64.88v172.9c0,29.41,20.99,50.4,51.55,50.4s51.13-20.99,51.13-50.4V84.75h65.28ZM1205.45,29.01c0-16.01,13.36-29.01,30.14-29.01s29.79,13.01,29.79,29.01-13.36,29.01-29.79,29.01-30.14-13.36-30.14-29.01ZM1289.43,29.01c0-16.01,13.34-29.01,30.14-29.01s29.79,13.01,29.79,29.01-13.36,29.01-29.79,29.01-30.14-13.36-30.14-29.01Z"/>
  <path class="cls-1" d="M1516.34,84.75l71.39,174.05h3.04l71.37-174.05h80.54v276.35h-63.34v-171.75h-2.29l-67.18,170.25h-41.23l-67.18-171h-2.29v172.5h-63.37V84.75h80.54Z"/>
</svg>